<svg width="25" height="24" viewBox="0 0 25 24" fill="none" xmlns="http://www.w3.org/2000/svg">
<path d="M19.1694 15.111C18.0956 15.1108 17.0282 14.9459 16.0048 14.622C15.6898 14.5112 15.3388 14.5985 15.1131 14.844L13.1511 16.8C10.6149 15.5162 8.55389 13.4615 7.26613 10.933L9.22811 8.978C9.45451 8.74161 9.53914 8.40375 9.45079 8.089C9.09305 7.05997 8.91229 5.97808 8.91616 4.889C8.91451 4.3987 8.51624 4.00165 8.02444 4H4.90393C4.41213 4.00165 4.01386 4.3987 4.01221 4.889C4.00928 8.89758 5.60526 12.7428 8.44842 15.5773C11.2916 18.4118 15.1486 20.0029 19.1694 20C19.6612 19.9984 20.0595 19.6013 20.0611 19.111V16C20.0595 15.5097 19.6612 15.1126 19.1694 15.111Z" fill="#1B365D"/>
<mask id="mask0" mask-type="alpha" maskUnits="userSpaceOnUse" x="4" y="4" width="17" height="16">
<path d="M19.1694 15.111C18.0956 15.1108 17.0282 14.9459 16.0048 14.622C15.6898 14.5112 15.3388 14.5985 15.1131 14.844L13.1511 16.8C10.6149 15.5162 8.55389 13.4615 7.26613 10.933L9.22811 8.978C9.45451 8.74161 9.53914 8.40375 9.45079 8.089C9.09305 7.05997 8.91229 5.97808 8.91616 4.889C8.91451 4.3987 8.51624 4.00165 8.02444 4H4.90393C4.41213 4.00165 4.01386 4.3987 4.01221 4.889C4.00928 8.89758 5.60526 12.7428 8.44842 15.5773C11.2916 18.4118 15.1486 20.0029 19.1694 20C19.6612 19.9984 20.0595 19.6013 20.0611 19.111V16C20.0595 15.5097 19.6612 15.1126 19.1694 15.111Z" fill="white"/>
</mask>
<g mask="url(#mask0)">
<path fill-rule="evenodd" clip-rule="evenodd" d="M12.5382 33C23.8947 33 33.1009 23.8218 33.1009 12.5C33.1009 1.17816 23.8947 -8 12.5382 -8C1.18176 -8 -8.02448 1.17816 -8.02448 12.5C-8.02448 23.8218 1.18176 33 12.5382 33Z" fill="#1B365D"/>
</g>
</svg>
