<svg width="25" height="24" viewBox="0 0 25 24" fill="none" xmlns="http://www.w3.org/2000/svg">
<path fill-rule="evenodd" clip-rule="evenodd" d="M4.81466 19.5002H19.2587C20.2416 19.513 21.0494 18.73 21.0642 17.7502V7.25015C21.0494 6.27028 20.2416 5.48736 19.2587 5.50015H4.81466C3.83176 5.48736 3.02401 6.27028 3.00916 7.25015V17.7502C3.02401 18.73 3.83176 19.513 4.81466 19.5002ZM4.8147 9.00012V7.25012L12.0367 11.6251L19.2587 7.25012V9.00012L12.0367 13.3751L4.8147 9.00012Z" fill="#1B365D"/>
<mask id="mask0" mask-type="alpha" maskUnits="userSpaceOnUse" x="3" y="5" width="19" height="15">
<path fill-rule="evenodd" clip-rule="evenodd" d="M4.81466 19.5002H19.2587C20.2416 19.513 21.0494 18.73 21.0642 17.7502V7.25015C21.0494 6.27028 20.2416 5.48736 19.2587 5.50015H4.81466C3.83176 5.48736 3.02401 6.27028 3.00916 7.25015V17.7502C3.02401 18.73 3.83176 19.513 4.81466 19.5002ZM4.8147 9.00012V7.25012L12.0367 11.6251L19.2587 7.25012V9.00012L12.0367 13.3751L4.8147 9.00012Z" fill="white"/>
</mask>
<g mask="url(#mask0)">
<path fill-rule="evenodd" clip-rule="evenodd" d="M11.5352 32.5C22.8916 32.5 32.0979 23.3218 32.0979 12C32.0979 0.678163 22.8916 -8.5 11.5352 -8.5C0.178704 -8.5 -9.02753 0.678163 -9.02753 12C-9.02753 23.3218 0.178704 32.5 11.5352 32.5Z" fill="#1B365D"/>
</g>
</svg>
